<?xml version="1.0" encoding="utf-8"?>
<svg version="1.1" xmlns:xlink="http://www.w3.org/1999/xlink" width="31px" height="31px" xmlns="http://www.w3.org/2000/svg">
  <g transform="matrix(1 0 0 1 -124 -791 )">
    <path d="M 17.9016927083333 7.931640625  C 18.0227864583333 8.052734375  18.0833333333333 8.20746527777777  18.0833333333333 8.39583333333333  L 18.0833333333333 17.4375  C 18.0833333333333 17.6258680555556  18.0227864583333 17.7805989583333  17.9016927083333 17.9016927083333  C 17.7805989583333 18.0227864583333  17.6258680555556 18.0833333333333  17.4375 18.0833333333333  L 10.9791666666667 18.0833333333333  C 10.7907986111111 18.0833333333333  10.6360677083333 18.0227864583333  10.5149739583333 17.9016927083333  C 10.3938802083333 17.7805989583333  10.3333333333333 17.6258680555556  10.3333333333333 17.4375  L 10.3333333333333 16.1458333333333  C 10.3333333333333 15.9574652777778  10.3938802083333 15.802734375  10.5149739583333 15.681640625  C 10.6360677083333 15.560546875  10.7907986111111 15.5  10.9791666666667 15.5  L 15.5 15.5  L 15.5 8.39583333333333  C 15.5 8.20746527777777  15.560546875 8.052734375  15.681640625 7.931640625  C 15.802734375 7.810546875  15.9574652777778 7.75  16.1458333333333 7.75  L 17.4375 7.75  C 17.6258680555556 7.75  17.7805989583333 7.810546875  17.9016927083333 7.931640625  Z M 25.005859375 21.009765625  C 25.9880642361111 19.3279079861111  26.4791666666667 17.4913194444444  26.4791666666667 15.5  C 26.4791666666667 13.5086805555556  25.9880642361111 11.6720920138889  25.005859375 9.990234375  C 24.0236545138889 8.30837673611111  22.6916232638889 6.97634548611111  21.009765625 5.994140625  C 19.3279079861111 5.01193576388889  17.4913194444444 4.52083333333333  15.5 4.52083333333333  C 13.5086805555556 4.52083333333333  11.6720920138889 5.01193576388889  9.990234375 5.994140625  C 8.30837673611111 6.97634548611111  6.97634548611111 8.30837673611111  5.994140625 9.990234375  C 5.01193576388889 11.6720920138889  4.52083333333333 13.5086805555556  4.52083333333333 15.5  C 4.52083333333333 17.4913194444444  5.01193576388889 19.3279079861111  5.994140625 21.009765625  C 6.97634548611111 22.6916232638889  8.30837673611111 24.0236545138889  9.990234375 25.005859375  C 11.6720920138889 25.9880642361111  13.5086805555556 26.4791666666667  15.5 26.4791666666667  C 17.4913194444444 26.4791666666667  19.3279079861111 25.9880642361111  21.009765625 25.005859375  C 22.6916232638889 24.0236545138889  24.0236545138889 22.6916232638889  25.005859375 21.009765625  Z M 28.9212239583333 7.7197265625  C 30.3070746527778 10.0945095486111  31 12.6879340277778  31 15.5  C 31 18.3120659722222  30.3070746527778 20.9054904513889  28.9212239583333 23.2802734375  C 27.5353732638889 25.6550564236111  25.6550564236111 27.5353732638889  23.2802734375 28.9212239583333  C 20.9054904513889 30.3070746527778  18.3120659722222 31  15.5 31  C 12.6879340277778 31  10.0945095486111 30.3070746527778  7.7197265625 28.9212239583333  C 5.34494357638889 27.5353732638889  3.46462673611111 25.6550564236111  2.07877604166667 23.2802734375  C 0.692925347222222 20.9054904513889  0 18.3120659722222  0 15.5  C 0 12.6879340277778  0.692925347222222 10.0945095486111  2.07877604166667 7.7197265625  C 3.46462673611111 5.34494357638889  5.34494357638889 3.46462673611111  7.7197265625 2.07877604166667  C 10.0945095486111 0.69292534722222  12.6879340277778 0  15.5 0  C 18.3120659722222 0  20.9054904513889 0.69292534722222  23.2802734375 2.07877604166667  C 25.6550564236111 3.46462673611111  27.5353732638889 5.34494357638889  28.9212239583333 7.7197265625  Z " fill-rule="nonzero" fill="#999999" stroke="none" transform="matrix(1 0 0 1 124 791 )" />
  </g>
</svg>