<?xml version="1.0" encoding="utf-8"?>
<svg version="1.1" xmlns:xlink="http://www.w3.org/1999/xlink" width="39px" height="29px" xmlns="http://www.w3.org/2000/svg">
  <g transform="matrix(1 0 0 1 -1007 -763 )">
    <path d="M 37.29375 16.1580255681818  C 38.43125 17.5929214015152  39 19.2372159090909  39 21.0909090909091  C 39 23.2741477272727  38.23828125 25.1381392045455  36.71484375 26.6828835227273  C 35.19140625 28.2276278409091  33.353125 29  31.2 29  L 9.1 29  C 6.59479166666667 29  4.45182291666667 28.0971827651515  2.67109375 26.2915482954545  C 0.890364583333333 24.4859138257576  0 22.3129734848485  0 19.7727272727273  C 0 17.9602272727273  0.480729166666667 16.3022017045455  1.4421875 14.7986505681818  C 2.40364583333333 13.2950994318182  3.66979166666667 12.1725852272727  5.240625 11.4311079545455  C 5.21354166666667 11.0466382575758  5.2 10.7514204545455  5.2 10.5454545454545  C 5.2 7.6344696969697  6.215625 5.14914772727273  8.246875 3.08948863636364  C 10.278125 1.02982954545455  12.7291666666667 0  15.6 0  C 17.7395833333333 0  19.6794270833333 0.604166666666665  21.41953125 1.8125  C 23.1596354166667 3.02083333333333  24.4291666666667 4.5999053030303  25.228125 6.54971590909091  C 26.1760416666667 5.69839015151515  27.3 5.27272727272727  28.6 5.27272727272727  C 30.0354166666667 5.27272727272727  31.2609375 5.78764204545455  32.2765625 6.81747159090909  C 33.2921875 7.84730113636364  33.8 9.08996212121212  33.8 10.5454545454545  C 33.8 11.5752840909091  33.5223958333333 12.5227272727273  32.9671875 13.3877840909091  C 34.7140625 13.7997159090909  36.15625 14.7231297348485  37.29375 16.1580255681818  Z " fill-rule="nonzero" fill="#000000" stroke="none" transform="matrix(1 0 0 1 1007 763 )" />
  </g>
</svg>