<?xml version="1.0" encoding="utf-8"?>
<svg version="1.1" xmlns:xlink="http://www.w3.org/1999/xlink" width="36px" height="36px" xmlns="http://www.w3.org/2000/svg">
  <g transform="matrix(1 0 0 1 -992 -717 )">
    <path d="M 28.0546875 20.5546875  C 28.3515625 20.2578125  28.5 19.90625  28.5 19.5  L 28.5 16.5  C 28.5 16.09375  28.3515625 15.7421875  28.0546875 15.4453125  C 27.7578125 15.1484375  27.40625 15  27 15  L 21 15  L 21 9  C 21 8.59375  20.8515625 8.2421875  20.5546875 7.9453125  C 20.2578125 7.6484375  19.90625 7.5  19.5 7.5  L 16.5 7.5  C 16.09375 7.5  15.7421875 7.6484375  15.4453125 7.9453125  C 15.1484375 8.2421875  15 8.59375  15 9  L 15 15  L 9 15  C 8.59375 15  8.2421875 15.1484375  7.9453125 15.4453125  C 7.6484375 15.7421875  7.5 16.09375  7.5 16.5  L 7.5 19.5  C 7.5 19.90625  7.6484375 20.2578125  7.9453125 20.5546875  C 8.2421875 20.8515625  8.59375 21  9 21  L 15 21  L 15 27  C 15 27.40625  15.1484375 27.7578125  15.4453125 28.0546875  C 15.7421875 28.3515625  16.09375 28.5  16.5 28.5  L 19.5 28.5  C 19.90625 28.5  20.2578125 28.3515625  20.5546875 28.0546875  C 20.8515625 27.7578125  21 27.40625  21 27  L 21 21  L 27 21  C 27.40625 21  27.7578125 20.8515625  28.0546875 20.5546875  Z M 33.5859375 8.96484375  C 35.1953125 11.72265625  36 14.734375  36 18  C 36 21.265625  35.1953125 24.27734375  33.5859375 27.03515625  C 31.9765625 29.79296875  29.79296875 31.9765625  27.03515625 33.5859375  C 24.27734375 35.1953125  21.265625 36  18 36  C 14.734375 36  11.72265625 35.1953125  8.96484375 33.5859375  C 6.20703125 31.9765625  4.0234375 29.79296875  2.4140625 27.03515625  C 0.8046875 24.27734375  0 21.265625  0 18  C 0 14.734375  0.8046875 11.72265625  2.4140625 8.96484375  C 4.0234375 6.20703125  6.20703125 4.0234375  8.96484375 2.4140625  C 11.72265625 0.804687499999997  14.734375 0  18 0  C 21.265625 0  24.27734375 0.804687499999997  27.03515625 2.4140625  C 29.79296875 4.0234375  31.9765625 6.20703125  33.5859375 8.96484375  Z " fill-rule="nonzero" fill="#ea7401" stroke="none" fill-opacity="0.772549019607843" transform="matrix(1 0 0 1 992 717 )" />
  </g>
</svg>