<?xml version="1.0" encoding="utf-8"?>
<svg version="1.1" xmlns:xlink="http://www.w3.org/1999/xlink" width="65px" height="69px" xmlns="http://www.w3.org/2000/svg">
  <g transform="matrix(1 0 0 1 -452 -359 )">
    <path d="M 52.6888173302108 43.0912897822446  C 53.8431889149102 40.35594639866  54.42037470726 37.4857621440536  54.42037470726 34.4807370184255  C 54.42037470726 31.4757118927973  53.8431889149102 28.605527638191  52.6888173302108 25.8701842546064  C 51.5344457455113 23.1348408710218  49.9741412958626 20.7719151312116  48.0079039812646 18.7814070351759  C 46.0416666666667 16.7908989391401  43.7075526932084 15.2113344500279  41.0055620608899 14.0427135678392  C 38.3035714285714 12.8740926856505  35.4683840749415 12.2897822445561  32.5 12.2897822445561  C 29.5316159250585 12.2897822445561  26.6964285714286 12.8740926856505  23.9944379391101 14.0427135678392  C 21.2924473067916 15.2113344500279  18.9583333333333 16.7908989391401  16.9920960187354 18.7814070351759  C 15.0258587041374 20.7719151312116  13.4655542544887 23.1348408710218  12.3111826697892 25.8701842546064  C 11.1568110850898 28.605527638191  10.57962529274 31.4757118927973  10.57962529274 34.4807370184255  C 10.57962529274 37.4857621440536  11.1568110850898 40.35594639866  12.3111826697892 43.0912897822446  C 13.4655542544887 45.8266331658291  15.0258587041374 48.1895589056393  16.9920960187354 50.180067001675  C 18.9583333333333 52.1705750977108  21.2924473067916 53.750139586823  23.9944379391101 54.9187604690117  C 26.6964285714286 56.0873813512004  29.5316159250585 56.6716917922948  32.5 56.6716917922948  C 35.4683840749415 56.6716917922948  38.3035714285714 56.0873813512004  41.0055620608899 54.9187604690117  C 43.7075526932084 53.750139586823  46.0416666666667 52.1705750977108  48.0079039812646 50.180067001675  C 49.9741412958626 48.1895589056393  51.5344457455113 45.8266331658291  52.6888173302108 43.0912897822446  Z M 64.771662763466 44.035175879397  C 65 44.3433835845896  65.0507416081187 44.715801228364  64.923887587822 45.1524288107203  C 64.8224043715847 45.5376884422111  64.5686963309914 45.7945281965382  64.1627634660422 45.9229480737018  L 53 49.6214405360134  L 53 61.4103852596315  C 53.0503512880562 61.821328866555  52.8854410616706 62.1552205471803  52.5556206088993 62.4120603015075  C 52.1750585480094 62.6689000558347  51.8071818891491 62.7202680067002  51.4519906323185 62.5661641541039  L 40.3395784543326 58.9447236180905  L 33.4894613583138 68.499162479062  C 33.2357533177205 68.8330541596873  32.9059328649493 69  32.5 69  C 32.0940671350507 69  31.7642466822795 68.8330541596873  31.5105386416862 68.499162479062  L 24.6604215456674 58.9447236180905  L 13.5480093676815 62.5661641541039  C 13.1928181108509 62.7202680067002  12.8249414519906 62.6689000558347  12.4443793911007 62.4120603015075  C 12.1145589383294 62.1552205471803  11.9496487119438 61.821328866555  12 61.4103852596315  L 12 49.6214405360134  L 0.837236533957845 45.9229480737018  C 0.431303669008587 45.7945281965382  0.1775956284153 45.5376884422111  0.0761124121779859 45.1524288107203  C -0.0507416081186571 44.715801228364  0 44.3433835845896  0.228337236533958 44.035175879397  L 7.07845433255269 34.4807370184255  L 0.228337236533958 24.9262981574539  C 0 24.5924064768286  -0.0507416081186571 24.2199888330542  0.0761124121779859 23.8090452261307  C 0.1775956284153 23.4237855946399  0.431303669008587 23.1669458403127  0.837236533957845 23.0385259631491  L 12 19.3400335008375  L 12 7.55108877721943  C 11.9496487119438 7.14014517029592  12.1145589383294 6.80625348967057  12.4443793911007 6.54941373534338  C 12.8249414519906 6.29257398101619  13.1928181108509 6.24120603015075  13.5480093676815 6.39530988274707  L 24.6604215456674 10.0167504187605  L 31.5105386416862 0.462311557788942  C 31.7388758782201 0.154103852596311  32.0686963309914 0  32.5 0  C 32.9313036690086 0  33.2611241217799 0.154103852596311  33.4894613583138 0.462311557788942  L 40.3395784543326 10.0167504187605  L 51.4519906323185 6.39530988274707  C 51.8071818891491 6.24120603015075  52.1750585480094 6.29257398101619  52.5556206088993 6.54941373534338  C 52.8854410616706 6.80625348967057  53.0503512880562 7.14014517029592  53 7.55108877721943  L 53 19.3400335008375  L 64.1627634660422 23.0385259631491  C 64.5686963309914 23.1669458403127  64.8224043715847 23.4237855946399  64.923887587822 23.8090452261307  C 65.0507416081187 24.2199888330542  65 24.5924064768286  64.771662763466 24.9262981574539  L 57.9215456674473 34.4807370184255  L 64.771662763466 44.035175879397  Z " fill-rule="nonzero" fill="#f7d700" stroke="none" transform="matrix(1 0 0 1 452 359 )" />
  </g>
</svg>