<?xml version="1.0" encoding="utf-8"?>
<svg version="1.1" xmlns:xlink="http://www.w3.org/1999/xlink" width="91px" height="67px" xmlns="http://www.w3.org/2000/svg">
  <g transform="matrix(1 0 0 1 -417 -369 )">
    <path d="M 87.01875 37.3306107954545  C 89.6729166666667 40.6457149621212  91 44.4446022727273  91 48.7272727272727  C 91 53.7713068181818  89.22265625 58.0777698863636  85.66796875 61.6466619318182  C 82.11328125 65.2155539772727  77.8239583333334 67  72.8 67  L 21.2333333333333 67  C 15.3878472222222 67  10.3875868055556 64.9141808712121  6.23255208333333 60.7425426136364  C 2.07751736111111 56.5709043560606  0 51.5506628787879  0 45.6818181818182  C 0 41.4943181818182  1.12170138888889 37.6637073863636  3.36510416666667 34.1899857954545  C 5.60850694444444 30.7162642045455  8.56284722222222 28.1228693181818  12.228125 26.4098011363636  C 12.1649305555556 25.5215435606061  12.1333333333333 24.8394886363636  12.1333333333333 24.3636363636364  C 12.1333333333333 17.6382575757576  14.503125 11.8963068181818  19.2427083333333 7.13778409090909  C 23.9822916666667 2.37926136363636  29.7013888888889 0  36.4 0  C 41.3923611111111 0  45.9186631944444 1.39583333333333  49.97890625 4.1875  C 54.0391493055556 6.97916666666666  57.0013888888889 10.6273674242424  58.865625 15.1321022727273  C 61.0774305555556 13.1652462121212  63.7 12.1818181818182  66.7333333333333 12.1818181818182  C 70.0826388888889 12.1818181818182  72.9421875 13.3714488636364  75.3119791666667 15.7507102272727  C 77.6817708333333 18.1299715909091  78.8666666666667 21.000946969697  78.8666666666667 24.3636363636364  C 78.8666666666667 26.7428977272727  78.2189236111111 28.9318181818182  76.9234375 30.9303977272727  C 80.9994791666667 31.8821022727273  84.3645833333333 34.0155066287879  87.01875 37.3306107954545  Z " fill-rule="nonzero" fill="#39adf2" stroke="none" transform="matrix(1 0 0 1 417 369 )" />
  </g>
</svg>