<?xml version="1.0" encoding="utf-8"?>
<svg version="1.1" xmlns:xlink="http://www.w3.org/1999/xlink" width="22px" height="22px" xmlns="http://www.w3.org/2000/svg">
  <g transform="matrix(1 0 0 1 -495 -716 )">
    <path d="M 17.8331381733021 13.7392518146287  C 18.2238485558158 12.8671133445003  18.4192037470726 11.9519821328867  18.4192037470726 10.9938581797878  C 18.4192037470726 10.035734226689  18.2238485558158 9.12060301507538  17.8331381733021 8.24846454494696  C 17.4424277907884 7.37632607481854  16.914324746292 6.62292946212544  16.2488290398126 5.98827470686767  C 15.5833333333333 5.3536199516099  14.7933255269321 4.8499906942118  13.8788056206089 4.47738693467337  C 12.9642857142857 4.10478317513493  12.0046838407494 3.91848129536572  11 3.91848129536572  C 9.99531615925059 3.91848129536572  9.03571428571428 4.10478317513493  8.1211943793911 4.47738693467337  C 7.20667447306792 4.8499906942118  6.41666666666667 5.3536199516099  5.75117096018735 5.98827470686767  C 5.08567525370804 6.62292946212544  4.55757220921155 7.37632607481854  4.16686182669789 8.24846454494696  C 3.77615144418423 9.12060301507538  3.5807962529274 10.035734226689  3.5807962529274 10.9938581797878  C 3.5807962529274 11.9519821328867  3.77615144418423 12.8671133445003  4.16686182669789 13.7392518146287  C 4.55757220921155 14.6113902847571  5.08567525370804 15.3647868974502  5.75117096018735 15.999441652708  C 6.41666666666667 16.6340964079658  7.20667447306792 17.1377256653639  8.1211943793911 17.5103294249023  C 9.03571428571428 17.8829331844407  9.99531615925059 18.0692350642099  11 18.0692350642099  C 12.0046838407494 18.0692350642099  12.9642857142857 17.8829331844407  13.8788056206089 17.5103294249023  C 14.7933255269321 17.1377256653639  15.5833333333333 16.6340964079658  16.2488290398126 15.999441652708  C 16.914324746292 15.3647868974502  17.4424277907884 14.6113902847571  17.8331381733021 13.7392518146287  Z M 21.9227166276347 14.0402010050251  C 22 14.1384701284199  22.0171740827479 14.2572119858552  21.9742388758782 14.3964265773311  C 21.9398907103825 14.5192629815745  21.8540202966432 14.6011539177368  21.7166276346604 14.642099385818  L 17.9555035128806 15.821328866555  L 17.9555035128806 19.5801228364042  C 17.9555035128806 19.7111483342639  17.89968774395 19.8176065512749  17.788056206089 19.8994974874372  C 17.6592505854801 19.9813884235995  17.5347384855582 19.9977666108319  17.4145199063232 19.9486320491346  L 13.6533957845433 18.7939698492462  L 11.3348946135831 21.8403126744835  C 11.2490241998439 21.9467708914945  11.1373926619828 22  11 22  C 10.8626073380172 22  10.7509758001561 21.9467708914945  10.6651053864169 21.8403126744835  L 8.34660421545667 18.7939698492462  L 4.58548009367682 19.9486320491346  C 4.46526151444184 19.9977666108319  4.34074941451991 19.9813884235995  4.21194379391101 19.8994974874372  C 4.10031225604996 19.8176065512749  4.04449648711944 19.7111483342639  4.04449648711944 19.5801228364042  L 4.04449648711944 15.821328866555  L 0.283372365339578 14.642099385818  C 0.145979703356752 14.6011539177368  0.0601092896174863 14.5192629815745  0.0257611241217799 14.3964265773311  C -0.0171740827478532 14.2572119858552  0 14.1384701284199  0.0772833723653396 14.0402010050251  L 2.39578454332553 10.9938581797878  L 0.0772833723653396 7.94751535455053  C 0 7.84105713753955  -0.0171740827478532 7.72231528010422  0.0257611241217799 7.59128978224456  C 0.0601092896174863 7.46845337800112  0.145979703356752 7.38656244183882  0.283372365339578 7.34561697375768  L 4.04449648711944 6.16638749302066  L 4.04449648711944 2.40759352317141  C 4.04449648711944 2.27656802531174  4.10031225604996 2.17010980830076  4.21194379391101 2.08821887213847  C 4.34074941451991 2.00632793597618  4.46526151444184 1.98994974874372  4.58548009367682 2.03908431044109  L 8.34660421545667 3.19374651032942  L 10.6651053864169 0.147403685092126  C 10.7423887587822 0.0491345616973746  10.8540202966432 0  11 0  C 11.1459797033568 0  11.2576112412178 0.0491345616973746  11.3348946135831 0.147403685092126  L 13.6533957845433 3.19374651032942  L 17.4145199063232 2.03908431044109  C 17.5347384855582 1.98994974874372  17.6592505854801 2.00632793597618  17.788056206089 2.08821887213847  C 17.89968774395 2.17010980830076  17.9555035128806 2.27656802531174  17.9555035128806 2.40759352317141  L 17.9555035128806 6.16638749302066  L 21.7166276346604 7.34561697375768  C 21.8540202966432 7.38656244183882  21.9398907103825 7.46845337800112  21.9742388758782 7.59128978224456  C 22.0171740827479 7.72231528010422  22 7.84105713753955  21.9227166276347 7.94751535455053  L 19.6042154566745 10.9938581797878  L 21.9227166276347 14.0402010050251  Z " fill-rule="nonzero" fill="#f7d700" stroke="none" transform="matrix(1 0 0 1 495 716 )" />
  </g>
</svg>