<?xml version="1.0" encoding="utf-8"?>
<svg version="1.1" xmlns:xlink="http://www.w3.org/1999/xlink" width="19px" height="28px" xmlns="http://www.w3.org/2000/svg">
  <g transform="matrix(1 0 0 1 -429 -280 )">
    <path d="M 12.8583984375 12.6328125  C 13.7861328125 11.7213541666667  14.25 10.6215277777778  14.25 9.33333333333333  C 14.25 8.04513888888889  13.7861328125 6.9453125  12.8583984375 6.03385416666667  C 11.9306640625 5.12239583333333  10.8111979166667 4.66666666666667  9.5 4.66666666666667  C 8.18880208333333 4.66666666666667  7.0693359375 5.12239583333333  6.1416015625 6.03385416666667  C 5.2138671875 6.9453125  4.75 8.04513888888889  4.75 9.33333333333333  C 4.75 10.6215277777778  5.2138671875 11.7213541666667  6.1416015625 12.6328125  C 7.0693359375 13.5442708333333  8.18880208333333 14  9.5 14  C 10.8111979166667 14  11.9306640625 13.5442708333333  12.8583984375 12.6328125  Z M 16.216796875 2.734375  C 18.072265625 4.55729166666667  19 6.75694444444444  19 9.33333333333333  C 19 10.6579861111111  18.7958984375 11.7456597222222  18.3876953125 12.5963541666667  L 11.6337890625 26.7057291666667  C 11.4358723958333 27.1067708333333  11.14208984375 27.4227430555556  10.75244140625 27.6536458333333  C 10.36279296875 27.8845486111111  9.9453125 28  9.5 28  C 9.0546875 28  8.63720703125 27.8845486111111  8.24755859375 27.6536458333333  C 7.85791015625 27.4227430555556  7.5703125 27.1067708333333  7.384765625 26.7057291666667  L 0.6123046875 12.5963541666667  C 0.2041015625 11.7456597222222  0 10.6579861111111  0 9.33333333333333  C 0 6.75694444444444  0.927734375 4.55729166666667  2.783203125 2.734375  C 4.638671875 0.911458333333334  6.87760416666667 0  9.5 0  C 12.1223958333333 0  14.361328125 0.911458333333334  16.216796875 2.734375  Z " fill-rule="nonzero" fill="#000000" stroke="none" transform="matrix(1 0 0 1 429 280 )" />
  </g>
</svg>