<?xml version="1.0" encoding="utf-8"?>
<svg version="1.1" xmlns:xlink="http://www.w3.org/1999/xlink" width="27px" height="20px" xmlns="http://www.w3.org/2000/svg">
  <g transform="matrix(1 0 0 1 -485 -592 )">
    <path d="M 25.81875 11.1434659090909  C 26.60625 12.1330492424242  27 13.2670454545455  27 14.5454545454545  C 27 16.0511363636364  26.47265625 17.3366477272727  25.41796875 18.4019886363636  C 24.36328125 19.4673295454545  23.090625 20  21.6 20  L 6.3 20  C 4.565625 20  3.08203125 19.3773674242424  1.84921875 18.1321022727273  C 0.61640625 16.8868371212121  0 15.3882575757576  0 13.6363636363636  C 0 12.3863636363636  0.3328125 11.2428977272727  0.9984375 10.2059659090909  C 1.6640625 9.16903409090909  2.540625 8.39488636363637  3.628125 7.88352272727273  C 3.609375 7.61837121212121  3.6 7.41477272727273  3.6 7.27272727272727  C 3.6 5.26515151515151  4.303125 3.55113636363636  5.709375 2.13068181818182  C 7.115625 0.710227272727273  8.8125 0  10.8 0  C 12.28125 0  13.62421875 0.416666666666665  14.82890625 1.25  C 16.03359375 2.08333333333333  16.9125 3.17234848484848  17.465625 4.51704545454545  C 18.121875 3.92992424242424  18.9 3.63636363636364  19.8 3.63636363636364  C 20.79375 3.63636363636364  21.6421875 3.99147727272727  22.3453125 4.70170454545455  C 23.0484375 5.41193181818182  23.4 6.26893939393939  23.4 7.27272727272727  C 23.4 7.98295454545455  23.2078125 8.63636363636363  22.8234375 9.23295454545455  C 24.0328125 9.51704545454545  25.03125 10.1538825757576  25.81875 11.1434659090909  Z " fill-rule="nonzero" fill="#39adf2" stroke="none" transform="matrix(1 0 0 1 485 592 )" />
  </g>
</svg>