<?xml version="1.0" encoding="utf-8"?>
<svg version="1.1" xmlns:xlink="http://www.w3.org/1999/xlink" width="18px" height="26px" xmlns="http://www.w3.org/2000/svg">
  <g transform="matrix(1 0 0 1 -712 -430 )">
    <path d="M 12.2783203125 6.05989583333333  C 12.7177734375 6.48871527777778  12.9375 6.99652777777778  12.9375 7.58333333333333  C 12.9375 7.73003472222222  12.8818359375 7.85698784722222  12.7705078125 7.96419270833333  C 12.6591796875 8.07139756944444  12.52734375 8.125  12.375 8.125  C 12.22265625 8.125  12.0908203125 8.07139756944444  11.9794921875 7.96419270833333  C 11.8681640625 7.85698784722222  11.8125 7.73003472222222  11.8125 7.58333333333333  C 11.8125 7.06423611111111  11.49609375 6.66362847222222  10.86328125 6.38151041666667  C 10.23046875 6.09939236111111  9.609375 5.95833333333333  9 5.95833333333333  C 8.84765625 5.95833333333333  8.7158203125 5.90473090277778  8.6044921875 5.79752604166667  C 8.4931640625 5.69032118055555  8.4375 5.56336805555555  8.4375 5.41666666666667  C 8.4375 5.26996527777778  8.4931640625 5.14301215277778  8.6044921875 5.03580729166667  C 8.7158203125 4.92860243055555  8.84765625 4.875  9 4.875  C 9.5859375 4.875  10.1689453125 4.96527777777778  10.7490234375 5.14583333333333  C 11.3291015625 5.32638888888889  11.8388671875 5.63107638888889  12.2783203125 6.05989583333333  Z M 14.5546875 10.6302083333333  C 15.3515625 9.73871527777778  15.75 8.72309027777778  15.75 7.58333333333333  C 15.75 6.77083333333333  15.5478515625 6.01475694444444  15.1435546875 5.31510416666667  C 14.7392578125 4.61545138888889  14.2119140625 4.04275173611111  13.5615234375 3.59700520833333  C 12.9111328125 3.15125868055555  12.1904296875 2.80143229166667  11.3994140625 2.54752604166667  C 10.6083984375 2.29361979166667  9.80859375 2.16666666666667  9 2.16666666666667  C 8.19140625 2.16666666666667  7.3916015625 2.29361979166667  6.6005859375 2.54752604166667  C 5.8095703125 2.80143229166667  5.0888671875 3.15125868055555  4.4384765625 3.59700520833333  C 3.7880859375 4.04275173611111  3.2607421875 4.61545138888889  2.8564453125 5.31510416666667  C 2.4521484375 6.01475694444444  2.25 6.77083333333333  2.25 7.58333333333333  C 2.25 8.72309027777778  2.6484375 9.73871527777778  3.4453125 10.6302083333333  C 3.5625 10.7543402777778  3.7412109375 10.9405381944444  3.9814453125 11.1888020833333  C 4.2216796875 11.4370659722222  4.400390625 11.6232638888889  4.517578125 11.7473958333333  C 6.017578125 13.4739583333333  6.84375 15.1553819444444  6.99609375 16.7916666666667  L 11.00390625 16.7916666666667  C 11.15625 15.1553819444444  11.982421875 13.4739583333333  13.482421875 11.7473958333333  C 13.599609375 11.6232638888889  13.7783203125 11.4370659722222  14.0185546875 11.1888020833333  C 14.2587890625 10.9405381944444  14.4375 10.7543402777778  14.5546875 10.6302083333333  Z M 17.2177734375 4.46028645833333  C 17.7392578125 5.42513020833333  18 6.46614583333333  18 7.58333333333333  C 18 9.33246527777778  17.396484375 10.8446180555556  16.189453125 12.1197916666667  C 15.662109375 12.6727430555556  15.2255859375 13.1636284722222  14.8798828125 13.5924479166667  C 14.5341796875 14.0212673611111  14.185546875 14.5601128472222  13.833984375 15.208984375  C 13.482421875 15.8578559027778  13.283203125 16.4644097222222  13.236328125 17.0286458333333  C 13.787109375 17.3446180555556  14.0625 17.8072916666667  14.0625 18.4166666666667  C 14.0625 18.8342013888889  13.916015625 19.1953125  13.623046875 19.5  C 13.916015625 19.8046875  14.0625 20.1657986111111  14.0625 20.5833333333333  C 14.0625 21.1701388888889  13.798828125 21.6271701388889  13.271484375 21.9544270833333  C 13.423828125 22.2139756944444  13.5 22.4791666666667  13.5 22.75  C 13.5 23.2690972222222  13.3154296875 23.6697048611111  12.9462890625 23.9518229166667  C 12.5771484375 24.2339409722222  12.123046875 24.375  11.583984375 24.375  C 11.349609375 24.8715277777778  10.998046875 25.2664930555556  10.529296875 25.5598958333333  C 10.060546875 25.8532986111111  9.55078125 26  9 26  C 8.44921875 26  7.939453125 25.8532986111111  7.470703125 25.5598958333333  C 7.001953125 25.2664930555556  6.650390625 24.8715277777778  6.416015625 24.375  C 5.876953125 24.375  5.4228515625 24.2339409722222  5.0537109375 23.9518229166667  C 4.6845703125 23.6697048611111  4.5 23.2690972222222  4.5 22.75  C 4.5 22.4791666666667  4.576171875 22.2139756944444  4.728515625 21.9544270833333  C 4.201171875 21.6271701388889  3.9375 21.1701388888889  3.9375 20.5833333333333  C 3.9375 20.1657986111111  4.083984375 19.8046875  4.376953125 19.5  C 4.083984375 19.1953125  3.9375 18.8342013888889  3.9375 18.4166666666667  C 3.9375 17.8072916666667  4.212890625 17.3446180555556  4.763671875 17.0286458333333  C 4.716796875 16.4644097222222  4.517578125 15.8578559027778  4.166015625 15.208984375  C 3.814453125 14.5601128472222  3.4658203125 14.0212673611111  3.1201171875 13.5924479166667  C 2.7744140625 13.1636284722222  2.337890625 12.6727430555556  1.810546875 12.1197916666667  C 0.603515625 10.8446180555556  0 9.33246527777778  0 7.58333333333333  C 0 6.46614583333333  0.2607421875 5.42513020833333  0.7822265625 4.46028645833333  C 1.3037109375 3.49544270833333  1.9892578125 2.69422743055555  2.8388671875 2.056640625  C 3.6884765625 1.41905381944444  4.6494140625 0.916883680555552  5.7216796875 0.550130208333332  C 6.7939453125 0.18337673611111  7.88671875 0  9 0  C 10.11328125 0  11.2060546875 0.18337673611111  12.2783203125 0.550130208333332  C 13.3505859375 0.916883680555552  14.3115234375 1.41905381944444  15.1611328125 2.056640625  C 16.0107421875 2.69422743055555  16.6962890625 3.49544270833333  17.2177734375 4.46028645833333  Z " fill-rule="nonzero" fill="#797979" stroke="none" transform="matrix(1 0 0 1 712 430 )" />
  </g>
</svg>