<?xml version="1.0" encoding="utf-8"?>
<svg version="1.1" xmlns:xlink="http://www.w3.org/1999/xlink" width="23px" height="13px" xmlns="http://www.w3.org/2000/svg">
  <g transform="matrix(1 0 0 1 -399 -201 )">
    <path d="M 2.55555555555556 2.6  L 19.1666666666667 2.6  L 19.1666666666667 10.4  L 2.55555555555556 10.4  L 2.55555555555556 2.6  Z M 20.4444444444444 11.375  L 20.4444444444444 8.45  L 21.7222222222222 8.45  L 21.7222222222222 4.55  L 20.4444444444444 4.55  L 20.4444444444444 1.625  C 20.4444444444444 1.53020833333333  20.4144965277778 1.45234375  20.3546006944444 1.39140625  C 20.2947048611111 1.33046875  20.2181712962963 1.3  20.125 1.3  L 1.59722222222222 1.3  C 1.50405092592593 1.3  1.42751736111111 1.33046875  1.36762152777778 1.39140625  C 1.30772569444444 1.45234375  1.27777777777778 1.53020833333333  1.27777777777778 1.625  L 1.27777777777778 11.375  C 1.27777777777778 11.4697916666667  1.30772569444444 11.54765625  1.36762152777778 11.60859375  C 1.42751736111111 11.66953125  1.50405092592593 11.7  1.59722222222222 11.7  L 20.125 11.7  C 20.2181712962963 11.7  20.2947048611111 11.66953125  20.3546006944444 11.60859375  C 20.4144965277778 11.54765625  20.4444444444444 11.4697916666667  20.4444444444444 11.375  Z M 22.6256510416667 3.630859375  C 22.8752170138889 3.884765625  23 4.19114583333333  23 4.55  L 23 8.45  C 23 8.80885416666666  22.8752170138889 9.115234375  22.6256510416667 9.369140625  C 22.3760850694444 9.623046875  22.0749421296296 9.75  21.7222222222222 9.75  L 21.7222222222222 11.375  C 21.7222222222222 11.821875  21.5658275462963 12.2044270833333  21.2530381944444 12.52265625  C 20.9402488425926 12.8408854166667  20.5642361111111 13  20.125 13  L 1.59722222222222 13  C 1.15798611111111 13  0.78197337962963 12.8408854166667  0.469184027777778 12.52265625  C 0.156394675925926 12.2044270833333  0 11.821875  0 11.375  L 0 1.625  C 0 1.178125  0.156394675925926 0.795572916666666  0.469184027777778 0.47734375  C 0.78197337962963 0.159114583333332  1.15798611111111 0  1.59722222222222 0  L 20.125 0  C 20.5642361111111 0  20.9402488425926 0.159114583333332  21.2530381944444 0.47734375  C 21.5658275462963 0.795572916666666  21.7222222222222 1.178125  21.7222222222222 1.625  L 21.7222222222222 3.25  C 22.0749421296296 3.25  22.3760850694444 3.376953125  22.6256510416667 3.630859375  Z " fill-rule="nonzero" fill="#000000" stroke="none" transform="matrix(1 0 0 1 399 201 )" />
  </g>
</svg>