<?xml version="1.0" encoding="utf-8"?>
<svg version="1.1" xmlns:xlink="http://www.w3.org/1999/xlink" width="35px" height="30px" xmlns="http://www.w3.org/2000/svg">
  <g transform="matrix(1 0 0 1 -181 -796 )">
    <path d="M 23.88671875 16.81640625  C 24.12109375 17.2721354166667  24.4921875 17.5  25 17.5  L 30.95703125 17.5  C 30.8919270833333 17.578125  30.8268229166667 17.646484375  30.76171875 17.705078125  C 30.6966145833333 17.763671875  30.6380208333333 17.8125  30.5859375 17.8515625  L 30.52734375 17.9296875  L 18.359375 29.6484375  C 18.125 29.8828125  17.8385416666667 30  17.5 30  C 17.1614583333333 30  16.875 29.8828125  16.640625 29.6484375  L 4.453125 17.890625  C 4.38802083333333 17.8645833333333  4.25130208333333 17.734375  4.04296875 17.5  L 11.25 17.5  C 11.5364583333333 17.5  11.7936197916667 17.412109375  12.021484375 17.236328125  C 12.2493489583333 17.060546875  12.3958333333333 16.8359375  12.4609375 16.5625  L 13.828125 11.07421875  L 17.5390625 24.1015625  C 17.6171875 24.3619791666667  17.7669270833333 24.5768229166667  17.98828125 24.74609375  C 18.2096354166667 24.9153645833333  18.4635416666667 25  18.75 25  C 19.0234375 25  19.2708333333333 24.9153645833333  19.4921875 24.74609375  C 19.7135416666667 24.5768229166667  19.86328125 24.3619791666667  19.94140625 24.1015625  L 22.79296875 14.62890625  L 23.88671875 16.81640625  Z M 32.51953125 2.421875  C 34.1731770833333 4.03645833333333  35 6.27604166666667  35 9.140625  C 35 11.0286458333333  34.3294270833333 12.9817708333333  32.98828125 15  L 25.78125 15  L 23.61328125 10.68359375  C 23.5091145833333 10.4622395833333  23.3430989583333 10.2864583333333  23.115234375 10.15625  C 22.8873697916667 10.0260416666667  22.6497395833333 9.97395833333333  22.40234375 10  C 21.81640625 10.0651041666667  21.4518229166667 10.3645833333333  21.30859375 10.8984375  L 18.7890625 19.296875  L 14.9609375 5.8984375  C 14.8828125 5.63802083333333  14.7298177083333 5.42317708333333  14.501953125 5.25390625  C 14.2740885416667 5.08463541666667  14.0169270833333 5  13.73046875 5  C 13.4440104166667 5  13.1901041666667 5.087890625  12.96875 5.263671875  C 12.7473958333333 5.439453125  12.6041666666667 5.6640625  12.5390625 5.9375  L 10.2734375 15  L 2.01171875 15  C 0.670572916666667 12.9817708333333  0 11.0286458333333  0 9.140625  C 0 6.27604166666667  0.826822916666667 4.03645833333333  2.48046875 2.421875  C 4.13411458333333 0.807291666666666  6.41927083333333 0  9.3359375 0  C 10.1432291666667 0  10.966796875 0.139973958333331  11.806640625 0.419921875000001  C 12.646484375 0.699869791666664  13.427734375 1.07747395833333  14.150390625 1.552734375  C 14.873046875 2.02799479166667  15.4947916666667 2.47395833333333  16.015625 2.890625  C 16.5364583333333 3.30729166666666  17.03125 3.75  17.5 4.21875  C 17.96875 3.75  18.4635416666667 3.30729166666666  18.984375 2.890625  C 19.5052083333333 2.47395833333333  20.126953125 2.02799479166667  20.849609375 1.552734375  C 21.572265625 1.07747395833333  22.353515625 0.699869791666664  23.193359375 0.419921875000001  C 24.033203125 0.139973958333331  24.8567708333333 0  25.6640625 0  C 28.5807291666667 0  30.8658854166667 0.807291666666666  32.51953125 2.421875  Z " fill-rule="nonzero" fill="#999999" stroke="none" transform="matrix(1 0 0 1 181 796 )" />
  </g>
</svg>