<?xml version="1.0" encoding="utf-8"?>
<svg version="1.1" xmlns:xlink="http://www.w3.org/1999/xlink" width="31px" height="31px" xmlns="http://www.w3.org/2000/svg">
  <g transform="matrix(1 0 0 1 -363 -795 )">
    <path d="M 19.1529947916667 19.1529947916667  C 20.162109375 18.1438802083333  20.6666666666667 16.9262152777778  20.6666666666667 15.5  C 20.6666666666667 14.0737847222222  20.162109375 12.8561197916667  19.1529947916667 11.8470052083333  C 18.1438802083333 10.837890625  16.9262152777778 10.3333333333333  15.5 10.3333333333333  C 14.0737847222222 10.3333333333333  12.8561197916667 10.837890625  11.8470052083333 11.8470052083333  C 10.837890625 12.8561197916667  10.3333333333333 14.0737847222222  10.3333333333333 15.5  C 10.3333333333333 16.9262152777778  10.837890625 18.1438802083333  11.8470052083333 19.1529947916667  C 12.8561197916667 20.162109375  14.0737847222222 20.6666666666667  15.5 20.6666666666667  C 16.9262152777778 20.6666666666667  18.1438802083333 20.162109375  19.1529947916667 19.1529947916667  Z M 30.8385416666667 12.8258463541667  C 30.9461805555556 12.9671223958333  31 13.1252170138889  31 13.3001302083333  L 31 17.7805989583333  C 31 17.9420572916667  30.9461805555556 18.0967881944444  30.8385416666667 18.2447916666667  C 30.7309027777778 18.3927951388889  30.5963541666667 18.4802517361111  30.4348958333333 18.5071614583333  L 26.701171875 19.072265625  C 26.4455295138889 19.798828125  26.1831597222222 20.4110243055556  25.9140625 20.9088541666667  C 26.3849826388889 21.5815972222222  27.1048177083333 22.5099826388889  28.0735677083333 23.6940104166667  C 28.2081163194444 23.85546875  28.275390625 24.0236545138889  28.275390625 24.1985677083333  C 28.275390625 24.3734809027778  28.21484375 24.5282118055556  28.09375 24.6627604166667  C 27.73046875 25.1605902777778  27.064453125 25.8871527777778  26.095703125 26.8424479166667  C 25.126953125 27.7977430555556  24.4945746527778 28.275390625  24.1985677083333 28.275390625  C 24.037109375 28.275390625  23.8621961805556 28.21484375  23.673828125 28.09375  L 20.888671875 25.9140625  C 20.2966579861111 26.2235243055556  19.6844618055556 26.4791666666667  19.0520833333333 26.6809895833333  C 18.8368055555556 28.5108506944444  18.6417100694444 29.7621527777778  18.466796875 30.4348958333333  C 18.3726128472222 30.8116319444444  18.1304253472222 31  17.740234375 31  L 13.259765625 31  C 13.0713975694444 31  12.9065755208333 30.9428168402778  12.7652994791667 30.8284505208333  C 12.6240234375 30.7140842013889  12.5466579861111 30.5694444444444  12.533203125 30.39453125  L 11.9680989583333 26.6809895833333  C 11.3088107638889 26.4657118055556  10.7033420138889 26.216796875  10.1516927083333 25.9342447916667  L 7.30598958333333 28.09375  C 7.17144097222222 28.21484375  7.00325520833333 28.275390625  6.80143229166667 28.275390625  C 6.61306423611111 28.275390625  6.44487847222222 28.2013888888889  6.296875 28.0533854166667  C 4.6015625 26.51953125  3.49153645833333 25.3893229166667  2.966796875 24.6627604166667  C 2.87261284722222 24.5282118055556  2.82552083333333 24.3734809027778  2.82552083333333 24.1985677083333  C 2.82552083333333 24.037109375  2.87934027777778 23.8823784722222  2.98697916666667 23.734375  C 3.18880208333333 23.4518229166667  3.53190104166667 23.0044487847222  4.01627604166667 22.3922526041667  C 4.50065104166667 21.7800564236111  4.86393229166667 21.3057725694444  5.10611979166667 20.9694010416667  C 4.74283854166667 20.2966579861111  4.46701388888889 19.6306423611111  4.27864583333333 18.9713541666667  L 0.585286458333333 18.4264322916667  C 0.410373263888889 18.3995225694444  0.269097222222222 18.3154296875  0.161458333333333 18.1741536458333  C 0.0538194444444444 18.0328776041667  0 17.8747829861111  0 17.6998697916667  L 0 13.2194010416667  C 0 13.0579427083333  0.0538194444444444 12.9032118055556  0.161458333333333 12.7552083333333  C 0.269097222222222 12.6072048611111  0.396918402777778 12.5197482638889  0.544921875 12.4928385416667  L 4.298828125 11.927734375  C 4.48719618055556 11.3088107638889  4.74956597222222 10.6898871527778  5.0859375 10.0709635416667  C 4.54774305555556 9.30403645833333  3.82790798611111 8.37565104166667  2.92643229166667 7.28580729166667  C 2.79188368055556 7.12434895833333  2.724609375 6.962890625  2.724609375 6.80143229166667  C 2.724609375 6.66688368055555  2.78515625 6.51215277777777  2.90625 6.33723958333333  C 3.25607638888889 5.85286458333333  3.91872829861111 5.12966579861111  4.89420572916667 4.16764322916667  C 5.86968315972222 3.20562065972222  6.50542534722222 2.724609375  6.80143229166667 2.724609375  C 6.97634548611111 2.724609375  7.15125868055556 2.79188368055555  7.326171875 2.92643229166667  L 10.111328125 5.0859375  C 10.7033420138889 4.77647569444444  11.3155381944444 4.52083333333333  11.9479166666667 4.31901041666667  C 12.1631944444444 2.48914930555555  12.3582899305556 1.23784722222222  12.533203125 0.565104166666666  C 12.6273871527778 0.188368055555554  12.8695746527778 0  13.259765625 0  L 17.740234375 0  C 17.9286024305556 0  18.0934244791667 0.0571831597222195  18.2347005208333 0.171549479166666  C 18.3759765625 0.285915798611108  18.4533420138889 0.430555555555554  18.466796875 0.60546875  L 19.0319010416667 4.31901041666667  C 19.6911892361111 4.53428819444444  20.2966579861111 4.783203125  20.8483072916667 5.06575520833333  L 23.7141927083333 2.90625  C 23.8352864583333 2.78515625  23.9967447916667 2.724609375  24.1985677083333 2.724609375  C 24.3734809027778 2.724609375  24.5416666666667 2.79188368055555  24.703125 2.92643229166667  C 26.4388020833333 4.52756076388889  27.548828125 5.67122395833333  28.033203125 6.357421875  C 28.1273871527778 6.46506076388889  28.1744791666667 6.61306423611111  28.1744791666667 6.80143229166667  C 28.1744791666667 6.962890625  28.1206597222222 7.11762152777777  28.0130208333333 7.265625  C 27.8111979166667 7.54817708333333  27.4680989583333 7.99555121527777  26.9837239583333 8.60774739583333  C 26.4993489583333 9.21994357638889  26.1360677083333 9.69422743055555  25.8938802083333 10.0305989583333  C 26.2437065972222 10.7033420138889  26.51953125 11.3626302083333  26.7213541666667 12.0084635416667  L 30.4147135416667 12.5735677083333  C 30.5896267361111 12.6004774305556  30.7309027777778 12.6845703125  30.8385416666667 12.8258463541667  Z " fill-rule="nonzero" fill="#999999" stroke="none" transform="matrix(1 0 0 1 363 795 )" />
  </g>
</svg>