<?xml version="1.0" encoding="utf-8"?>
<svg version="1.1" xmlns:xlink="http://www.w3.org/1999/xlink" width="31px" height="27px" xmlns="http://www.w3.org/2000/svg">
  <g transform="matrix(1 0 0 1 -97 -489 )">
    <path d="M 8.3996699669967 7.31584158415842  C 8.91122112211221 6.87029702970297  9.16699669966997 6.33267326732673  9.16699669966997 5.7029702970297  C 9.16699669966997 5.07326732673267  8.91122112211221 4.53564356435644  8.3996699669967 4.09009900990099  C 7.88811881188119 3.64455445544555  7.27084708470847 3.42178217821782  6.54785478547855 3.42178217821782  C 5.82486248624863 3.42178217821782  5.20759075907591 3.64455445544555  4.6960396039604 4.09009900990099  C 4.18448844884488 4.53564356435644  3.92871287128713 5.07326732673267  3.92871287128713 5.7029702970297  C 3.92871287128713 6.33267326732673  4.18448844884488 6.87029702970297  4.6960396039604 7.31584158415842  C 5.20759075907591 7.76138613861386  5.82486248624863 7.98415841584158  6.54785478547855 7.98415841584158  C 7.27084708470847 7.98415841584158  7.88811881188119 7.76138613861386  8.3996699669967 7.31584158415842  Z M 30.242904290429 14.3465346534653  C 30.7476347634763 14.809900990099  31 15.3504950495049  31 15.9683168316832  C 31 16.5980198019802  30.7476347634763 17.1326732673267  30.242904290429 17.5722772277228  L 20.1960396039604 26.3405940594059  C 19.6640264026403 26.780198019802  19.0433443344334 27  18.3339933993399 27  C 17.61100110011 27  16.9971397139714 26.780198019802  16.4924092409241 26.3405940594059  L 1.86204620462046 13.580198019802  C 1.34367436743674 13.1405940594059  0.903740374037404 12.5405940594059  0.542244224422442 11.780198019802  C 0.180748074807481 11.019801980198  0 10.3247524752475  0 9.69504950495049  L 0 2.28118811881188  C 0 1.66336633663366  0.259185918591859 1.12871287128713  0.777557755775578 0.677227722772276  C 1.2959295929593 0.225742574257423  1.90979097909791 0  2.61914191419142 0  L 11.1313531353135 0  C 11.8543454345435 0  12.6523652365237 0.157425742574255  13.5254125412541 0.472277227722772  C 14.3984598459846 0.787128712871285  15.0941694169417 1.17029702970297  15.6125412541254 1.62178217821782  L 30.242904290429 14.3465346534653  Z " fill-rule="nonzero" fill="#797979" stroke="none" transform="matrix(1 0 0 1 97 489 )" />
  </g>
</svg>