<?xml version="1.0" encoding="utf-8"?>
<svg version="1.1" xmlns:xlink="http://www.w3.org/1999/xlink" width="20px" height="16px" xmlns="http://www.w3.org/2000/svg">
  <g transform="matrix(1 0 0 1 -350 -198 )">
    <path d="M 2.75669642857143 13.4270833333333  C 2.82366071428571 13.4895833333333  2.85714285714286 13.5694444444444  2.85714285714286 13.6666666666667  L 2.85714285714286 15.6666666666667  C 2.85714285714286 15.7638888888889  2.82366071428571 15.84375  2.75669642857143 15.90625  C 2.68973214285714 15.96875  2.60416666666667 16  2.5 16  L 0.357142857142857 16  C 0.25297619047619 16  0.167410714285714 15.96875  0.100446428571429 15.90625  C 0.0334821428571429 15.84375  0 15.7638888888889  0 15.6666666666667  L 0 13.6666666666667  C 0 13.5694444444444  0.0334821428571429 13.4895833333333  0.100446428571429 13.4270833333333  C 0.167410714285714 13.3645833333333  0.25297619047619 13.3333333333333  0.357142857142857 13.3333333333333  L 2.5 13.3333333333333  C 2.60416666666667 13.3333333333333  2.68973214285714 13.3645833333333  2.75669642857143 13.4270833333333  Z M 7.04241071428571 12.09375  C 7.109375 12.15625  7.14285714285714 12.2361111111111  7.14285714285714 12.3333333333333  L 7.14285714285714 15.6666666666667  C 7.14285714285714 15.7638888888889  7.109375 15.84375  7.04241071428571 15.90625  C 6.97544642857143 15.96875  6.88988095238095 16  6.78571428571429 16  L 4.64285714285714 16  C 4.53869047619048 16  4.453125 15.96875  4.38616071428571 15.90625  C 4.31919642857143 15.84375  4.28571428571429 15.7638888888889  4.28571428571429 15.6666666666667  L 4.28571428571429 12.3333333333333  C 4.28571428571429 12.2361111111111  4.31919642857143 12.15625  4.38616071428571 12.09375  C 4.453125 12.03125  4.53869047619048 12  4.64285714285714 12  L 6.78571428571429 12  C 6.88988095238095 12  6.97544642857143 12.03125  7.04241071428571 12.09375  Z M 11.328125 9.42708333333333  C 11.3950892857143 9.48958333333333  11.4285714285714 9.56944444444444  11.4285714285714 9.66666666666667  L 11.4285714285714 15.6666666666667  C 11.4285714285714 15.7638888888889  11.3950892857143 15.84375  11.328125 15.90625  C 11.2611607142857 15.96875  11.1755952380952 16  11.0714285714286 16  L 8.92857142857143 16  C 8.82440476190476 16  8.73883928571429 15.96875  8.671875 15.90625  C 8.60491071428571 15.84375  8.57142857142857 15.7638888888889  8.57142857142857 15.6666666666667  L 8.57142857142857 9.66666666666667  C 8.57142857142857 9.56944444444444  8.60491071428571 9.48958333333333  8.671875 9.42708333333333  C 8.73883928571429 9.36458333333333  8.82440476190476 9.33333333333333  8.92857142857143 9.33333333333333  L 11.0714285714286 9.33333333333333  C 11.1755952380952 9.33333333333333  11.2611607142857 9.36458333333333  11.328125 9.42708333333333  Z M 15.6138392857143 5.42708333333333  C 15.6808035714286 5.48958333333333  15.7142857142857 5.56944444444444  15.7142857142857 5.66666666666667  L 15.7142857142857 15.6666666666667  C 15.7142857142857 15.7638888888889  15.6808035714286 15.84375  15.6138392857143 15.90625  C 15.546875 15.96875  15.4613095238095 16  15.3571428571429 16  L 13.2142857142857 16  C 13.110119047619 16  13.0245535714286 15.96875  12.9575892857143 15.90625  C 12.890625 15.84375  12.8571428571429 15.7638888888889  12.8571428571429 15.6666666666667  L 12.8571428571429 5.66666666666667  C 12.8571428571429 5.56944444444444  12.890625 5.48958333333333  12.9575892857143 5.42708333333333  C 13.0245535714286 5.36458333333333  13.110119047619 5.33333333333333  13.2142857142857 5.33333333333333  L 15.3571428571429 5.33333333333333  C 15.4613095238095 5.33333333333333  15.546875 5.36458333333333  15.6138392857143 5.42708333333333  Z M 19.8995535714286 0.09375  C 19.9665178571429 0.15625  20 0.236111111111109  20 0.333333333333334  L 20 15.6666666666667  C 20 15.7638888888889  19.9665178571429 15.84375  19.8995535714286 15.90625  C 19.8325892857143 15.96875  19.7470238095238 16  19.6428571428571 16  L 17.5 16  C 17.3958333333333 16  17.3102678571429 15.96875  17.2433035714286 15.90625  C 17.1763392857143 15.84375  17.1428571428571 15.7638888888889  17 15.6666666666667  L 17 0.333333333333334  C 17.1428571428571 0.236111111111109  17.1763392857143 0.15625  17.2433035714286 0.09375  C 17.3102678571429 0.03125  17.3958333333333 0  17.5 0  L 19.6428571428571 0  C 19.7470238095238 0  19.8325892857143 0.03125  19.8995535714286 0.09375  Z " fill-rule="nonzero" fill="#000000" stroke="none" transform="matrix(1 0 0 1 350 198 )" />
  </g>
</svg>